<svg width="60" height="45" fill="none" xmlns="http://www.w3.org/2000/svg"><path d="M55.613 3.471c-.596-.292-.852.264-1.2.547-.12.09-.22.21-.32.319-.87.929-1.887 1.54-3.215 1.466-1.942-.109-3.6.502-5.065 1.987-.312-1.832-1.347-2.925-2.922-3.626-.824-.365-1.658-.73-2.235-1.522-.403-.565-.513-1.194-.714-1.813-.129-.374-.257-.756-.687-.82-.467-.073-.65.319-.834.647-.732 1.34-1.016 2.815-.989 4.31.064 3.361 1.484 6.04 4.305 7.944.32.219.403.437.302.756-.192.656-.421 1.294-.623 1.95-.128.42-.32.51-.769.328-1.548-.647-2.885-1.603-4.067-2.76-2.005-1.941-3.819-4.082-6.081-5.759a26.606 26.606 0 0 0-1.612-1.102c-2.308-2.241.302-4.082.907-4.3.631-.228.22-1.012-1.823-1.003-2.043.01-3.911.693-6.292 1.604a7.151 7.151 0 0 1-1.09.319 22.473 22.473 0 0 0-6.75-.237c-4.415.492-7.941 2.578-10.533 6.14C.19 13.13-.541 17.995.356 23.07c.944 5.348 3.673 9.776 7.868 13.239 4.35 3.59 9.36 5.348 15.076 5.01 3.471-.2 7.336-.664 11.696-4.354 1.099.546 2.253.765 4.167.929 1.475.136 2.895-.073 3.994-.3 1.721-.365 1.602-1.96.98-2.251-5.047-2.35-3.939-1.394-4.946-2.169 2.564-3.034 6.43-6.186 7.94-16.4.12-.81.019-1.32 0-1.977-.009-.4.083-.555.541-.601 1.264-.146 2.491-.492 3.618-1.112 3.27-1.785 4.588-4.72 4.9-8.236.046-.538-.01-1.094-.577-1.376ZM27.119 35.123c-4.89-3.845-7.263-5.111-8.243-5.057-.916.055-.751 1.103-.55 1.786.211.674.486 1.14.87 1.731.266.392.45.975-.265 1.413-1.576.974-4.314-.329-4.442-.392-3.188-1.877-5.853-4.355-7.73-7.745-1.814-3.262-2.867-6.76-3.041-10.496-.046-.902.22-1.22 1.117-1.384 1.182-.22 2.4-.265 3.581-.092 4.992.73 9.242 2.961 12.805 6.497 2.033 2.013 3.572 4.418 5.156 6.77 1.685 2.495 3.499 4.874 5.807 6.823.815.684 1.465 1.203 2.088 1.586-1.877.21-5.01.255-7.153-1.44Zm2.345-15.079a.717.717 0 0 1 .97-.674c.101.037.193.091.266.173.128.128.202.31.202.501 0 .401-.32.72-.724.72a.71.71 0 0 1-.714-.72Zm7.281 3.736c-.467.191-.934.355-1.383.373-.696.037-1.456-.246-1.868-.592-.641-.538-1.1-.838-1.292-1.777-.082-.4-.036-1.02.037-1.375.165-.766-.018-1.258-.559-1.704-.44-.365-.998-.465-1.612-.465-.229 0-.44-.1-.595-.182-.257-.128-.467-.446-.266-.838.064-.128.376-.438.45-.492.833-.474 1.794-.32 2.683.036.824.337 1.447.957 2.344 1.832.916 1.056 1.081 1.348 1.603 2.14.413.62.788 1.258 1.044 1.987.156.456-.045.829-.586 1.057Z" fill="#4D6BFE"/></svg>